<mxfile host="Electron" agent="Mozilla/5.0 (X11; Linux x86_64) AppleWebKit/537.36 (KHTML, like Gecko) draw.io/27.0.5 Chrome/134.0.6998.205 Electron/35.3.0 Safari/537.36" version="27.0.5">
  <diagram name="Page-1" id="LfioOEpU_xqTCD_qNKaV">
    <mxGraphModel dx="2521" dy="2147" grid="1" gridSize="10" guides="1" tooltips="1" connect="1" arrows="1" fold="1" page="1" pageScale="1" pageWidth="850" pageHeight="1100" math="0" shadow="0">
      <root>
        <mxCell id="0" />
        <mxCell id="1" parent="0" />
        <mxCell id="d-giCy21W4FM3soPrq_8-1" value="nats" style="rounded=0;whiteSpace=wrap;html=1;fillColor=#fff2cc;strokeColor=#d6b656;labelPosition=left;verticalLabelPosition=top;align=right;verticalAlign=bottom;" vertex="1" parent="1">
          <mxGeometry x="-10" y="100" width="484" height="260" as="geometry" />
        </mxCell>
        <mxCell id="d-giCy21W4FM3soPrq_8-55" style="edgeStyle=orthogonalEdgeStyle;rounded=0;orthogonalLoop=1;jettySize=auto;html=1;exitX=0.5;exitY=0;exitDx=0;exitDy=0;entryX=0.5;entryY=1;entryDx=0;entryDy=0;" edge="1" parent="1" source="d-giCy21W4FM3soPrq_8-2" target="d-giCy21W4FM3soPrq_8-52">
          <mxGeometry relative="1" as="geometry" />
        </mxCell>
        <mxCell id="d-giCy21W4FM3soPrq_8-2" value="provisioning-prefill" style="rounded=0;whiteSpace=wrap;html=1;fillColor=#fff2cc;strokeColor=#d6b656;" vertex="1" parent="1">
          <mxGeometry x="240" y="550" width="120" height="60" as="geometry" />
        </mxCell>
        <mxCell id="d-giCy21W4FM3soPrq_8-13" style="edgeStyle=orthogonalEdgeStyle;rounded=0;orthogonalLoop=1;jettySize=auto;html=1;exitX=0.5;exitY=1;exitDx=0;exitDy=0;" edge="1" parent="1" source="d-giCy21W4FM3soPrq_8-3" target="d-giCy21W4FM3soPrq_8-9">
          <mxGeometry relative="1" as="geometry" />
        </mxCell>
        <mxCell id="d-giCy21W4FM3soPrq_8-14" value="Events, poll pull???" style="edgeLabel;html=1;align=center;verticalAlign=middle;resizable=0;points=[];" vertex="1" connectable="0" parent="d-giCy21W4FM3soPrq_8-13">
          <mxGeometry x="-0.1949" y="-5" relative="1" as="geometry">
            <mxPoint as="offset" />
          </mxGeometry>
        </mxCell>
        <mxCell id="d-giCy21W4FM3soPrq_8-3" value="provisioning-api" style="rounded=0;whiteSpace=wrap;html=1;fillColor=#fff2cc;strokeColor=#d6b656;" vertex="1" parent="1">
          <mxGeometry x="510" y="530" width="120" height="60" as="geometry" />
        </mxCell>
        <mxCell id="d-giCy21W4FM3soPrq_8-11" style="edgeStyle=orthogonalEdgeStyle;rounded=0;orthogonalLoop=1;jettySize=auto;html=1;exitX=0.5;exitY=0;exitDx=0;exitDy=0;entryX=1;entryY=0.5;entryDx=0;entryDy=0;" edge="1" parent="1" source="d-giCy21W4FM3soPrq_8-3" target="d-giCy21W4FM3soPrq_8-1">
          <mxGeometry relative="1" as="geometry" />
        </mxCell>
        <mxCell id="d-giCy21W4FM3soPrq_8-12" value="Create Key (Queue/Stream)" style="edgeLabel;html=1;align=center;verticalAlign=middle;resizable=0;points=[];" vertex="1" connectable="0" parent="d-giCy21W4FM3soPrq_8-11">
          <mxGeometry x="0.361" y="4" relative="1" as="geometry">
            <mxPoint x="29" y="41" as="offset" />
          </mxGeometry>
        </mxCell>
        <mxCell id="d-giCy21W4FM3soPrq_8-37" style="edgeStyle=orthogonalEdgeStyle;rounded=0;orthogonalLoop=1;jettySize=auto;html=1;exitX=1;exitY=0.5;exitDx=0;exitDy=0;" edge="1" parent="1" source="d-giCy21W4FM3soPrq_8-4" target="d-giCy21W4FM3soPrq_8-28">
          <mxGeometry relative="1" as="geometry" />
        </mxCell>
        <mxCell id="d-giCy21W4FM3soPrq_8-38" value="sort / write into" style="edgeLabel;html=1;align=center;verticalAlign=middle;resizable=0;points=[];" vertex="1" connectable="0" parent="d-giCy21W4FM3soPrq_8-37">
          <mxGeometry x="-0.7742" y="4" relative="1" as="geometry">
            <mxPoint x="56" y="4" as="offset" />
          </mxGeometry>
        </mxCell>
        <mxCell id="d-giCy21W4FM3soPrq_8-4" value="provisioning-dispatcher" style="whiteSpace=wrap;html=1;fillColor=#fff2cc;strokeColor=#d6b656;" vertex="1" parent="1">
          <mxGeometry x="15" y="-60" width="120" height="60" as="geometry" />
        </mxCell>
        <mxCell id="d-giCy21W4FM3soPrq_8-21" style="edgeStyle=orthogonalEdgeStyle;rounded=0;orthogonalLoop=1;jettySize=auto;html=1;exitX=0.5;exitY=0;exitDx=0;exitDy=0;" edge="1" parent="1" source="d-giCy21W4FM3soPrq_8-5" target="d-giCy21W4FM3soPrq_8-19">
          <mxGeometry relative="1" as="geometry" />
        </mxCell>
        <mxCell id="d-giCy21W4FM3soPrq_8-22" value="write" style="edgeLabel;html=1;align=center;verticalAlign=middle;resizable=0;points=[];" vertex="1" connectable="0" parent="d-giCy21W4FM3soPrq_8-21">
          <mxGeometry x="-0.2488" y="-1" relative="1" as="geometry">
            <mxPoint as="offset" />
          </mxGeometry>
        </mxCell>
        <mxCell id="d-giCy21W4FM3soPrq_8-5" value="provisioning-udm-transformer" style="rounded=0;whiteSpace=wrap;html=1;fillColor=#fff2cc;strokeColor=#d6b656;" vertex="1" parent="1">
          <mxGeometry x="-200" y="260" width="120" height="60" as="geometry" />
        </mxCell>
        <mxCell id="d-giCy21W4FM3soPrq_8-17" style="edgeStyle=orthogonalEdgeStyle;rounded=0;orthogonalLoop=1;jettySize=auto;html=1;exitX=1;exitY=0.5;exitDx=0;exitDy=0;entryX=0;entryY=0.5;entryDx=0;entryDy=0;" edge="1" parent="1" source="d-giCy21W4FM3soPrq_8-6" target="d-giCy21W4FM3soPrq_8-15">
          <mxGeometry relative="1" as="geometry" />
        </mxCell>
        <mxCell id="d-giCy21W4FM3soPrq_8-18" value="Update Notification" style="edgeLabel;html=1;align=center;verticalAlign=middle;resizable=0;points=[];" vertex="1" connectable="0" parent="d-giCy21W4FM3soPrq_8-17">
          <mxGeometry x="-0.2286" y="5" relative="1" as="geometry">
            <mxPoint as="offset" />
          </mxGeometry>
        </mxCell>
        <mxCell id="d-giCy21W4FM3soPrq_8-6" value="LDAP Listener" style="rounded=0;whiteSpace=wrap;html=1;fillColor=#d5e8d4;strokeColor=#82b366;" vertex="1" parent="1">
          <mxGeometry x="-450" y="390" width="120" height="60" as="geometry" />
        </mxCell>
        <mxCell id="d-giCy21W4FM3soPrq_8-7" style="edgeStyle=none;curved=0;rounded=0;orthogonalLoop=1;jettySize=auto;html=1;exitX=0;exitY=0.5;exitDx=0;exitDy=0;entryX=1;entryY=0.5;entryDx=0;entryDy=0;fontSize=12;startSize=8;endSize=8;" edge="1" parent="1" source="d-giCy21W4FM3soPrq_8-9" target="d-giCy21W4FM3soPrq_8-3">
          <mxGeometry relative="1" as="geometry" />
        </mxCell>
        <mxCell id="d-giCy21W4FM3soPrq_8-8" value="Registers" style="edgeLabel;html=1;align=center;verticalAlign=middle;resizable=0;points=[];fontSize=12;" vertex="1" connectable="0" parent="d-giCy21W4FM3soPrq_8-7">
          <mxGeometry x="-0.035" y="5" relative="1" as="geometry">
            <mxPoint as="offset" />
          </mxGeometry>
        </mxCell>
        <mxCell id="d-giCy21W4FM3soPrq_8-9" value="Example Consumer" style="rounded=0;whiteSpace=wrap;html=1;fillColor=#e1d5e7;strokeColor=#9673a6;" vertex="1" parent="1">
          <mxGeometry x="780" y="450" width="120" height="60" as="geometry" />
        </mxCell>
        <mxCell id="d-giCy21W4FM3soPrq_8-25" style="edgeStyle=orthogonalEdgeStyle;rounded=0;orthogonalLoop=1;jettySize=auto;html=1;exitX=1;exitY=0.5;exitDx=0;exitDy=0;entryX=0.5;entryY=1;entryDx=0;entryDy=0;" edge="1" parent="1" source="d-giCy21W4FM3soPrq_8-15" target="d-giCy21W4FM3soPrq_8-16">
          <mxGeometry relative="1" as="geometry" />
        </mxCell>
        <mxCell id="d-giCy21W4FM3soPrq_8-26" value="write" style="edgeLabel;html=1;align=center;verticalAlign=middle;resizable=0;points=[];" vertex="1" connectable="0" parent="d-giCy21W4FM3soPrq_8-25">
          <mxGeometry x="-0.3209" y="-3" relative="1" as="geometry">
            <mxPoint as="offset" />
          </mxGeometry>
        </mxCell>
        <mxCell id="d-giCy21W4FM3soPrq_8-15" value="UDM Listener" style="rounded=0;whiteSpace=wrap;html=1;fillColor=#d5e8d4;strokeColor=#82b366;" vertex="1" parent="1">
          <mxGeometry x="-190" y="390" width="120" height="60" as="geometry" />
        </mxCell>
        <mxCell id="d-giCy21W4FM3soPrq_8-23" style="edgeStyle=orthogonalEdgeStyle;rounded=0;orthogonalLoop=1;jettySize=auto;html=1;exitX=0;exitY=0.5;exitDx=0;exitDy=0;" edge="1" parent="1" source="d-giCy21W4FM3soPrq_8-16" target="d-giCy21W4FM3soPrq_8-5">
          <mxGeometry relative="1" as="geometry" />
        </mxCell>
        <mxCell id="d-giCy21W4FM3soPrq_8-24" value="read" style="edgeLabel;html=1;align=center;verticalAlign=middle;resizable=0;points=[];" vertex="1" connectable="0" parent="d-giCy21W4FM3soPrq_8-23">
          <mxGeometry x="0.2741" relative="1" as="geometry">
            <mxPoint as="offset" />
          </mxGeometry>
        </mxCell>
        <mxCell id="d-giCy21W4FM3soPrq_8-16" value="Directory Object Queue" style="ellipse;whiteSpace=wrap;html=1;fillColor=#e1d5e7;strokeColor=#9673a6;" vertex="1" parent="1">
          <mxGeometry x="20" y="300" width="110" height="50" as="geometry" />
        </mxCell>
        <mxCell id="d-giCy21W4FM3soPrq_8-35" style="edgeStyle=orthogonalEdgeStyle;rounded=0;orthogonalLoop=1;jettySize=auto;html=1;exitX=0.5;exitY=0;exitDx=0;exitDy=0;" edge="1" parent="1" source="d-giCy21W4FM3soPrq_8-19" target="d-giCy21W4FM3soPrq_8-4">
          <mxGeometry relative="1" as="geometry" />
        </mxCell>
        <mxCell id="d-giCy21W4FM3soPrq_8-36" value="read" style="edgeLabel;html=1;align=center;verticalAlign=middle;resizable=0;points=[];" vertex="1" connectable="0" parent="d-giCy21W4FM3soPrq_8-35">
          <mxGeometry x="0.5167" y="-3" relative="1" as="geometry">
            <mxPoint as="offset" />
          </mxGeometry>
        </mxCell>
        <mxCell id="d-giCy21W4FM3soPrq_8-19" value="&quot;Incoming&quot; Queue" style="ellipse;whiteSpace=wrap;html=1;fillColor=#e1d5e7;strokeColor=#9673a6;" vertex="1" parent="1">
          <mxGeometry x="20" y="240" width="110" height="50" as="geometry" />
        </mxCell>
        <mxCell id="d-giCy21W4FM3soPrq_8-28" value="Created Queues" style="ellipse;whiteSpace=wrap;html=1;fillColor=#6a00ff;strokeColor=#3700CC;fontColor=#ffffff;" vertex="1" parent="1">
          <mxGeometry x="364" y="205" width="110" height="50" as="geometry" />
        </mxCell>
        <mxCell id="d-giCy21W4FM3soPrq_8-32" style="edgeStyle=orthogonalEdgeStyle;rounded=0;orthogonalLoop=1;jettySize=auto;html=1;exitX=0.5;exitY=0;exitDx=0;exitDy=0;entryX=1;entryY=0.5;entryDx=0;entryDy=0;" edge="1" parent="1" source="d-giCy21W4FM3soPrq_8-31" target="d-giCy21W4FM3soPrq_8-16">
          <mxGeometry relative="1" as="geometry" />
        </mxCell>
        <mxCell id="d-giCy21W4FM3soPrq_8-33" style="edgeStyle=orthogonalEdgeStyle;rounded=0;orthogonalLoop=1;jettySize=auto;html=1;exitX=0.5;exitY=0;exitDx=0;exitDy=0;entryX=1;entryY=0.5;entryDx=0;entryDy=0;" edge="1" parent="1" source="d-giCy21W4FM3soPrq_8-31" target="d-giCy21W4FM3soPrq_8-19">
          <mxGeometry relative="1" as="geometry" />
        </mxCell>
        <mxCell id="d-giCy21W4FM3soPrq_8-42" style="edgeStyle=orthogonalEdgeStyle;rounded=0;orthogonalLoop=1;jettySize=auto;html=1;exitX=0.5;exitY=0;exitDx=0;exitDy=0;entryX=0;entryY=0.5;entryDx=0;entryDy=0;" edge="1" parent="1" source="d-giCy21W4FM3soPrq_8-31" target="d-giCy21W4FM3soPrq_8-41">
          <mxGeometry relative="1" as="geometry" />
        </mxCell>
        <mxCell id="d-giCy21W4FM3soPrq_8-31" value="Created By??" style="rounded=0;whiteSpace=wrap;html=1;fillColor=#d80073;strokeColor=#A50040;fontColor=#ffffff;" vertex="1" parent="1">
          <mxGeometry x="110" y="460" width="120" height="60" as="geometry" />
        </mxCell>
        <mxCell id="d-giCy21W4FM3soPrq_8-40" style="edgeStyle=orthogonalEdgeStyle;rounded=0;orthogonalLoop=1;jettySize=auto;html=1;exitX=0.5;exitY=1;exitDx=0;exitDy=0;" edge="1" parent="1" source="d-giCy21W4FM3soPrq_8-39">
          <mxGeometry relative="1" as="geometry">
            <mxPoint x="190" y="-40" as="targetPoint" />
          </mxGeometry>
        </mxCell>
        <mxCell id="d-giCy21W4FM3soPrq_8-39" value="How??" style="rounded=0;whiteSpace=wrap;html=1;fillColor=#d80073;strokeColor=#A50040;fontColor=#ffffff;" vertex="1" parent="1">
          <mxGeometry x="130" y="-220" width="120" height="60" as="geometry" />
        </mxCell>
        <mxCell id="d-giCy21W4FM3soPrq_8-41" value="Prefill Service Control Queue" style="ellipse;whiteSpace=wrap;html=1;fillColor=#e1d5e7;strokeColor=#9673a6;" vertex="1" parent="1">
          <mxGeometry x="330" y="300" width="110" height="50" as="geometry" />
        </mxCell>
        <mxCell id="d-giCy21W4FM3soPrq_8-46" style="edgeStyle=orthogonalEdgeStyle;rounded=0;orthogonalLoop=1;jettySize=auto;html=1;exitX=0.5;exitY=0;exitDx=0;exitDy=0;" edge="1" parent="1" source="d-giCy21W4FM3soPrq_8-45" target="d-giCy21W4FM3soPrq_8-15">
          <mxGeometry relative="1" as="geometry" />
        </mxCell>
        <mxCell id="d-giCy21W4FM3soPrq_8-47" style="edgeStyle=orthogonalEdgeStyle;rounded=0;orthogonalLoop=1;jettySize=auto;html=1;exitX=1;exitY=0.5;exitDx=0;exitDy=0;" edge="1" parent="1" source="d-giCy21W4FM3soPrq_8-45" target="d-giCy21W4FM3soPrq_8-2">
          <mxGeometry relative="1" as="geometry" />
        </mxCell>
        <mxCell id="d-giCy21W4FM3soPrq_8-45" value="Connection??" style="rounded=0;whiteSpace=wrap;html=1;fillColor=#d80073;strokeColor=#A50040;fontColor=#ffffff;" vertex="1" parent="1">
          <mxGeometry x="-160" y="600" width="120" height="60" as="geometry" />
        </mxCell>
        <mxCell id="d-giCy21W4FM3soPrq_8-49" style="edgeStyle=orthogonalEdgeStyle;rounded=0;orthogonalLoop=1;jettySize=auto;html=1;exitX=0.5;exitY=0;exitDx=0;exitDy=0;entryX=1;entryY=0.5;entryDx=0;entryDy=0;" edge="1" parent="1" source="d-giCy21W4FM3soPrq_8-48" target="d-giCy21W4FM3soPrq_8-9">
          <mxGeometry relative="1" as="geometry" />
        </mxCell>
        <mxCell id="d-giCy21W4FM3soPrq_8-50" value="use??" style="edgeLabel;html=1;align=center;verticalAlign=middle;resizable=0;points=[];" vertex="1" connectable="0" parent="d-giCy21W4FM3soPrq_8-49">
          <mxGeometry x="0.0818" y="-1" relative="1" as="geometry">
            <mxPoint as="offset" />
          </mxGeometry>
        </mxCell>
        <mxCell id="d-giCy21W4FM3soPrq_8-48" value="Portal Consumer?&lt;br&gt;Applications?&lt;br&gt;How?" style="rounded=0;whiteSpace=wrap;html=1;fillColor=#d80073;strokeColor=#A50040;fontColor=#ffffff;" vertex="1" parent="1">
          <mxGeometry x="860" y="680" width="120" height="60" as="geometry" />
        </mxCell>
        <mxCell id="d-giCy21W4FM3soPrq_8-51" value="What is &quot;old/new/meta&quot; ?" style="rounded=0;whiteSpace=wrap;html=1;fillColor=#d80073;strokeColor=#A50040;fontColor=#ffffff;" vertex="1" parent="1">
          <mxGeometry x="-260" width="120" height="60" as="geometry" />
        </mxCell>
        <mxCell id="d-giCy21W4FM3soPrq_8-52" value="Created Queues" style="ellipse;whiteSpace=wrap;html=1;fillColor=#6a00ff;strokeColor=#3700CC;fontColor=#ffffff;" vertex="1" parent="1">
          <mxGeometry x="254" y="205" width="110" height="50" as="geometry" />
        </mxCell>
        <mxCell id="d-giCy21W4FM3soPrq_8-53" style="edgeStyle=orthogonalEdgeStyle;rounded=0;orthogonalLoop=1;jettySize=auto;html=1;exitX=0.5;exitY=1;exitDx=0;exitDy=0;entryX=0.633;entryY=0;entryDx=0;entryDy=0;entryPerimeter=0;" edge="1" parent="1" source="d-giCy21W4FM3soPrq_8-41" target="d-giCy21W4FM3soPrq_8-2">
          <mxGeometry relative="1" as="geometry" />
        </mxCell>
        <mxCell id="d-giCy21W4FM3soPrq_8-54" value="Whats happening&lt;div&gt;here&lt;/div&gt;" style="rounded=0;whiteSpace=wrap;html=1;fillColor=#d80073;strokeColor=#A50040;fontColor=#ffffff;" vertex="1" parent="1">
          <mxGeometry x="354" y="430" width="120" height="60" as="geometry" />
        </mxCell>
        <mxCell id="d-giCy21W4FM3soPrq_8-56" value="Prefilled with what?" style="rounded=0;whiteSpace=wrap;html=1;fillColor=#d80073;strokeColor=#A50040;fontColor=#ffffff;" vertex="1" parent="1">
          <mxGeometry x="240" y="610" width="120" height="60" as="geometry" />
        </mxCell>
      </root>
    </mxGraphModel>
  </diagram>
</mxfile>
